<?xml version="1.0" encoding="UTF-8" standalone="no"?>
<!-- Created with Inkscape (http://www.inkscape.org/) -->

<svg
   width="48"
   height="48"
   viewBox="0 0 12.7 12.7"
   version="1.1"
   id="svg1"
   inkscape:version="1.3.2 (1:1.3.2+202311252150+091e20ef0f)"
   sodipodi:docname="logo.svg"
   inkscape:export-filename="logo.png"
   inkscape:export-xdpi="200"
   inkscape:export-ydpi="200"
   xmlns:inkscape="http://www.inkscape.org/namespaces/inkscape"
   xmlns:sodipodi="http://sodipodi.sourceforge.net/DTD/sodipodi-0.dtd"
   xmlns:xlink="http://www.w3.org/1999/xlink"
   xmlns="http://www.w3.org/2000/svg"
   xmlns:svg="http://www.w3.org/2000/svg">
  <sodipodi:namedview
     id="namedview1"
     pagecolor="#ffffff"
     bordercolor="#666666"
     borderopacity="1.0"
     inkscape:showpageshadow="2"
     inkscape:pageopacity="0.0"
     inkscape:pagecheckerboard="0"
     inkscape:deskcolor="#d1d1d1"
     inkscape:document-units="mm"
     inkscape:zoom="4.323827"
     inkscape:cx="-19.658511"
     inkscape:cy="-19.889787"
     inkscape:window-width="1862"
     inkscape:window-height="1016"
     inkscape:window-x="58"
     inkscape:window-y="27"
     inkscape:window-maximized="1"
     inkscape:current-layer="layer1"
     showgrid="false">
    <inkscape:grid
       id="grid1"
       units="px"
       originx="0"
       originy="0"
       spacingx="0.26458334"
       spacingy="0.26458334"
       empcolor="#3f3fff"
       empopacity="0.25098039"
       color="#3f3fff"
       opacity="0.1254902"
       empspacing="5"
       dotted="false"
       gridanglex="30"
       gridanglez="30"
       visible="false" />
  </sodipodi:namedview>
  <defs
     id="defs1">
    <linearGradient
       id="linearGradient9"
       inkscape:collect="always">
      <stop
         style="stop-color:#ff003c;stop-opacity:1;"
         offset="0"
         id="stop9" />
      <stop
         style="stop-color:#ff9599;stop-opacity:1;"
         offset="1"
         id="stop10" />
    </linearGradient>
    <linearGradient
       inkscape:collect="always"
       xlink:href="#linearGradient9"
       id="linearGradient10"
       x1="2.6458335"
       y1="2.2014058"
       x2="9.7383289"
       y2="10.583334"
       gradientUnits="userSpaceOnUse" />
  </defs>
  <g
     inkscape:label="Layer 1"
     inkscape:groupmode="layer"
     id="layer1">
    <circle
       style="fill:#ffffff;fill-opacity:1;stroke:none;stroke-width:1.5;stroke-linecap:round;stroke-linejoin:round;stroke-dasharray:none;stroke-opacity:1"
       id="path10"
       cx="6.3499999"
       cy="6.3499999"
       r="6.3499999" />
    <path
       id="path2-8"
       style="fill:url(#linearGradient10);fill-opacity:1;stroke-linecap:round;stroke-linejoin:round"
       d="m 8.8635424,5.291667 c 0,0.3653133 -0.296145,0.6614583 -0.6614583,0.6614583 -0.3653134,0 -0.6614584,-0.2961449 -0.6614584,-0.6614583 0,-0.3653134 0.296145,-0.6614583 0.6614584,-0.6614583 0.3653133,0 0.6614583,0.296145 0.6614583,0.6614583 z M 5.1593753,6.3500004 c 0,0.3653133 -0.414603,0.6614583 -0.9260417,0.6614583 -0.5114387,0 -0.9260417,-0.296145 -0.9260417,-0.6614583 0,-0.3653133 0.414603,-0.6614583 0.9260417,-0.6614583 0.5114387,0 0.9260417,0.296145 0.9260417,0.6614583 z M 10.980208,3.9687502 c 0,0.3653133 -0.296144,0.6614582 -0.661458,0.6614584 -0.3653127,4e-7 -0.6614587,-0.3496438 -0.6614587,-0.6614584 0,-0.3118146 0.296146,-0.6614587 0.6614587,-0.6614583 0.365314,2e-7 0.661458,0.2961451 0.661458,0.6614583 z M 9.3927086,2.3812501 c 0,0.3653134 -0.2961449,0.6614584 -0.6614583,0.6614584 -0.3653134,0 -0.6614583,-0.296145 -0.6614583,-0.6614584 0,-0.3653133 0.296145,-0.6614583 0.6614583,-0.6614583 0.3653133,0 0.6614583,0.296145 0.6614583,0.6614583 z M 6.2177085,4.4979169 c 0,0.3653134 -0.2961449,0.6614584 -0.6614583,0.6614584 -0.3653134,0 -0.6614583,-0.296145 -0.6614583,-0.6614584 0,-0.3653133 0.296145,-0.6614583 0.6614583,-0.6614583 0.3653133,0 0.6614583,0.296145 0.6614583,0.6614583 z m 2.3812503,3.4395836 c 0,0.3653133 -0.296145,0.6614583 -0.6614583,0.6614583 -0.3653133,0 -0.6614583,-0.296145 -0.6614583,-0.6614583 0,-0.3653133 0.296145,-0.6614583 0.6614583,-0.6614583 0.3653133,0 0.6614583,0.296145 0.6614583,0.6614583 z M 5.7636719,0.59179687 C 4.0704123,0.73328012 2.4923777,1.655852 1.5214844,3.1464844 0.22696003,5.1339942 0.26006476,7.7274092 1.6054687,9.6796875 2.9508729,11.631966 5.3524307,12.542303 7.6230469,11.945313 9.8936629,11.348322 11.560528,9.378221 11.826172,7.0097656 11.873019,6.597576 11.576352,6.2256485 11.164063,6.1796875 10.752592,6.1340005 10.381925,6.4303589 10.335938,6.8417969 10.137285,8.6129656 8.9002037,10.057701 7.2402344,10.494141 5.580265,10.93058 3.8384129,10.277121 2.8398438,8.828125 1.8412747,7.3791292 1.8159715,5.4408583 2.7773438,3.9648438 3.738716,2.4888292 5.4644787,1.788392 7.1347656,2.1796875 7.5388429,2.2747493 7.9432826,2.0235065 8.0371094,1.6191406 8.1309381,1.2157166 7.8799795,0.81260885 7.4765625,0.71875 6.9052006,0.58489795 6.3280917,0.54463579 5.7636719,0.59179687 Z"
       sodipodi:nodetypes="sssssssssssszssssssssssssssssssssscccssscccs" />
    <text
       xml:space="preserve"
       style="font-size:2.82223px;line-height:1.25;font-family:'Open Sans';-inkscape-font-specification:'Open Sans';letter-spacing:0px;word-spacing:0px;stroke-width:0.264583"
       x="6.0854173"
       y="5.291667"
       id="text2"><tspan
         sodipodi:role="line"
         id="tspan2"
         style="font-style:normal;font-variant:normal;font-weight:normal;font-stretch:normal;font-family:Umpush;-inkscape-font-specification:Umpush;stroke-width:0.264583"
         x="6.0854173"
         y="5.291667" /></text>
  </g>
</svg>
